<svg width="128" height="128" viewBox="0 0 128 128" fill="none" xmlns="http://www.w3.org/2000/svg">
<path d="M37.958 34.408C37.964 34.27 38 34.14 38 34C38 28.478 33.522 24 28 24C22.478 24 18 28.478 18 34C18 39.522 22.478 44 28 44C30.762 44 33.262 42.88 35.072 41.072L30 36L37.958 34.408Z" fill="url(#paint0_linear_260_1260)"/>
<path d="M49.5281 50L61.0961 62.21C62.6741 63.876 65.3261 63.876 66.9041 62.21L78.4721 50H49.5281Z" fill="url(#paint1_linear_260_1260)"/>
<path d="M101.486 35.338C102.016 34.75 102.148 33.908 101.826 33.186C101.506 32.464 100.79 32 100 32H45.882C44.884 23.014 37.25 16 28 16C18.074 16 10 24.074 10 34C10 43.926 18.074 52 28 52C31.904 52 35.512 50.738 38.464 48.616L62 74.768V85C62 97.682 52.13 108 40 108H38V112H90V108H88C75.87 108 66 97.682 66 85V74.768L101.486 35.338ZM74.45 108H53.55C58.19 105.042 61.882 100.636 64 95.368C66.118 100.636 69.812 105.042 74.45 108ZM64 71.01L41.436 45.938C43.848 43.226 45.462 39.794 45.884 36H95.512L64 71.01ZM32.49 36H41.84C41.462 38.62 40.37 41.01 38.748 42.954L32.49 36ZM28 48C20.282 48 14 41.718 14 34C14 26.282 20.282 20 28 20C35.038 20 40.864 25.228 41.84 32H28C27.21 32 26.494 32.464 26.174 33.186C25.852 33.908 25.984 34.75 26.514 35.338L35.778 45.632C33.552 47.126 30.876 48 28 48Z" fill="url(#paint2_linear_260_1260)"/>
<defs>
<linearGradient id="paint0_linear_260_1260" x1="28" y1="23.446" x2="28" y2="44.054" gradientUnits="userSpaceOnUse">
<stop stop-color="#6DC7FF"/>
<stop offset="1" stop-color="#E6ABFF"/>
</linearGradient>
<linearGradient id="paint1_linear_260_1260" x1="64.0001" y1="49.574" x2="64.0001" y2="62.938" gradientUnits="userSpaceOnUse">
<stop stop-color="#6DC7FF"/>
<stop offset="1" stop-color="#E6ABFF"/>
</linearGradient>
<linearGradient id="paint2_linear_260_1260" x1="56" y1="17.914" x2="56" y2="112.224" gradientUnits="userSpaceOnUse">
<stop stop-color="#1A6DFF"/>
<stop offset="1" stop-color="#C822FF"/>
</linearGradient>
</defs>
</svg>
