<svg width="128" height="128" viewBox="0 0 128 128" fill="none" xmlns="http://www.w3.org/2000/svg">
<path d="M64 26.0039C61.8783 26.0039 59.8434 26.8468 58.3431 28.3471C56.8429 29.8473 56 31.8822 56 34.0039C56 36.1256 56.8429 38.1605 58.3431 39.6608C59.8434 41.1611 61.8783 42.0039 64 42.0039C66.1217 42.0039 68.1566 41.1611 69.6569 39.6608C71.1571 38.1605 72 36.1256 72 34.0039C72 31.8822 71.1571 29.8473 69.6569 28.3471C68.1566 26.8468 66.1217 26.0039 64 26.0039Z" fill="url(#paint0_linear_260_894)"/>
<path d="M112 52.0001C114.206 52.0001 116 50.2181 116 48.0221V47.0561C116 45.7741 115.374 44.5641 114.286 43.7881L69.612 13.7161C66.202 11.4221 61.8 11.4221 58.39 13.7161L13.672 43.8181C12.624 44.5641 12 45.7741 12 47.0561V48.0221C12 50.2181 13.794 52.0001 16 52.0001H22V96.0041C18.692 96.0041 16 98.6961 16 102.004V104.372C13.678 105.202 12 107.4 12 110.004V116H116V110.004C116 107.4 114.322 105.202 112 104.372V102.004C112 98.6961 109.308 96.0041 106 96.0041V52.0001H112ZM16 48.0001L15.95 47.0961L60.624 17.0281C61.648 16.3361 62.824 15.9941 64 15.9941C65.176 15.9941 66.352 16.3401 67.376 17.0321L112 47.0521L112.006 48.0001C112.006 48.0001 112.004 48.0001 112 48.0001H106H86H74H54V48.0161L42 48.0181V48.0001H22H16ZM98 68.0001V60.0001H102V88.0001H98V78.0001H94V88.0001H90V60.0001H94V68.0001H98ZM86 96.0001H74V52.0001H86V96.0001ZM30 78.0001V88.0001H26V60.0001H30V68.0001H34V60.0001H38V88.0001H34V78.0001H30ZM42 52.0001H54V96.0001H42V52.0001ZM70 52.0001V56.0001H58V52.0001H70ZM70 88.0001H66V78.0001H62V88.0001H58V60.0001H62V68.0001H66V60.0001H70V88.0001ZM58 92.0001H70V96.0001H58V92.0001ZM38 52.0001V56.0001H26V52.0001H38ZM26 92.0001H38V96.0001H26V92.0001ZM112 112H16V110.004C16 108.9 16.896 108 18 108H110C111.104 108 112 108.9 112 110.004V112ZM108 102.004V104H20V102.004C20 100.9 20.896 100 22 100H42H54H74H86H106C107.104 100 108 100.9 108 102.004ZM90 96.0001V92.0001H102V96.0001H90ZM102 56.0001H90V52.0001H102V56.0001Z" fill="url(#paint1_linear_260_894)"/>
<path d="M64 44.0039C69.514 44.0039 74 39.5179 74 34.0039C74 28.4899 69.514 24.0039 64 24.0039C58.486 24.0039 54 28.4899 54 34.0039C54 39.5179 58.486 44.0039 64 44.0039ZM64 28.0039C67.308 28.0039 70 30.6959 70 34.0039C70 37.3119 67.308 40.0039 64 40.0039C60.692 40.0039 58 37.3119 58 34.0039C58 30.6959 60.692 28.0039 64 28.0039Z" fill="url(#paint2_linear_260_894)"/>
<defs>
<linearGradient id="paint0_linear_260_894" x1="64" y1="24.6719" x2="64" y2="43.3379" gradientUnits="userSpaceOnUse">
<stop stop-color="#6DC7FF"/>
<stop offset="1" stop-color="#E6ABFF"/>
</linearGradient>
<linearGradient id="paint1_linear_260_894" x1="64" y1="11.6721" x2="64" y2="118.608" gradientUnits="userSpaceOnUse">
<stop stop-color="#1A6DFF"/>
<stop offset="1" stop-color="#C822FF"/>
</linearGradient>
<linearGradient id="paint2_linear_260_894" x1="64" y1="11.6719" x2="64" y2="118.612" gradientUnits="userSpaceOnUse">
<stop stop-color="#1A6DFF"/>
<stop offset="1" stop-color="#C822FF"/>
</linearGradient>
</defs>
</svg>
