<svg width="128" height="128" viewBox="0 0 128 128" fill="none" xmlns="http://www.w3.org/2000/svg">
<path d="M112.002 18C112 14.692 109.308 12 106 12C102.692 12 100 14.692 100 18V26H95.724C95.308 24.384 94.412 22.92 93.094 21.832C91.248 20.306 88.82 19.706 86.436 20.148C83.434 20.726 81.12 23.05 80.324 26H74.002C74.002 20.486 69.516 16 64.002 16C58.488 16 54.002 20.486 54.002 26H47.8C47.412 24.292 46.472 22.748 45.092 21.606C43.248 20.082 40.82 19.468 38.436 19.926C35.358 20.518 33.002 22.946 32.266 26H28V18C28 14.692 25.308 12 22 12C18.692 12 16 14.692 16 18C13.794 18 12 19.796 12 22V34C12 36.204 13.794 38 16 38C16 41.308 18.692 44 22 44C25.308 44 28 41.308 28 38V30H32V46C32 51.514 36.488 56 42.002 56H56V75.608L15.706 101.25C13.904 102.398 12.656 104.178 12.192 106.264C11.73 108.352 12.106 110.492 13.252 112.296C14.732 114.616 17.256 116 20.008 116C21.528 116 23.01 115.568 24.298 114.75L66.334 88H76V107.66C76 112.106 79.324 115.764 83.572 115.99C83.718 115.996 83.86 116 84.004 116C86.064 116 88.006 115.228 89.508 113.8C91.092 112.298 92 110.184 92 108V82C92 76.486 87.516 72 82.002 72H72V56H86.002C91.516 56 96 51.514 96 46V30H100V38C100 41.308 102.692 44 106 44C109.308 44 112 41.308 112 38C114.206 38 116 36.206 116 34V22C116 19.794 114.208 18 112.002 18ZM24 38C24 39.104 23.104 40 22 40C20.896 40 20 39.104 20 38V18C20 16.896 20.896 16 22 16C23.104 16 24 16.896 24 18V38ZM64.002 20C67.31 20 70.002 22.692 70.002 26C70.002 29.308 67.31 32 64.002 32C60.694 32 58.002 29.308 58.002 26C58.002 22.692 60.694 20 64.002 20ZM54.85 30C56.398 33.526 59.912 36 64.002 36C68.092 36 71.606 33.526 73.154 30H80V40H48V30H54.85ZM22.15 111.376C20.338 112.526 17.772 111.944 16.628 110.148C15.442 108.288 15.994 105.81 17.854 104.626L56.258 80.188C56.878 82.95 58.652 85.252 61.036 86.63L22.15 111.376ZM92 46C92 49.308 89.31 52 86.002 52H68V76H82.002C85.31 76 88 78.692 88 82V108C88 109.108 87.556 110.138 86.754 110.9C85.95 111.666 84.884 112.052 83.782 111.994C81.698 111.884 80 109.94 80 107.66V88C80 85.794 78.208 84 76.002 84H66.002C62.694 84 60 81.308 60 78V52H42.002C38.694 52 36 49.308 36 46V30V28C36 25.986 37.372 24.204 39.19 23.856C39.466 23.804 39.738 23.776 40.006 23.776C40.938 23.776 41.818 24.09 42.544 24.69C43.47 25.454 44 26.58 44 27.778V40C44 42.206 45.796 44 48.002 44H80.002C82.208 44 84 42.206 84 40V28.222C84 26.208 85.372 24.426 87.19 24.078C88.414 23.848 89.61 24.14 90.548 24.914C91.47 25.678 92 26.802 92 28V46ZM108 38C108 39.104 107.104 40 106 40C104.896 40 104 39.104 104 38V18C104 16.896 104.896 16 106 16C107.104 16 108 16.896 108 18V38Z" fill="url(#paint0_linear_260_1154)"/>
<path d="M64.002 20C62.4107 20 60.8845 20.6321 59.7593 21.7574C58.6341 22.8826 58.002 24.4087 58.002 26C58.002 27.5913 58.6341 29.1174 59.7593 30.2426C60.8845 31.3679 62.4107 32 64.002 32C65.5933 32 67.1194 31.3679 68.2446 30.2426C69.3698 29.1174 70.002 27.5913 70.002 26C70.002 24.4087 69.3698 22.8826 68.2446 21.7574C67.1194 20.6321 65.5933 20 64.002 20Z" fill="url(#paint1_linear_260_1154)"/>
<path d="M24 38C24 39.104 23.104 40 22 40C20.896 40 20 39.104 20 38V18C20 16.896 20.896 16 22 16C23.104 16 24 16.896 24 18V38Z" fill="url(#paint2_linear_260_1154)"/>
<path d="M108 38C108 39.104 107.104 40 106 40C104.896 40 104 39.104 104 38V18C104 16.896 104.896 16 106 16C107.104 16 108 16.896 108 18V38Z" fill="url(#paint3_linear_260_1154)"/>
<defs>
<linearGradient id="paint0_linear_260_1154" x1="64" y1="10.5" x2="64" y2="118.478" gradientUnits="userSpaceOnUse">
<stop stop-color="#1A6DFF"/>
<stop offset="1" stop-color="#C822FF"/>
</linearGradient>
<linearGradient id="paint1_linear_260_1154" x1="64.002" y1="19.25" x2="64.002" y2="32.25" gradientUnits="userSpaceOnUse">
<stop stop-color="#6DC7FF"/>
<stop offset="1" stop-color="#E6ABFF"/>
</linearGradient>
<linearGradient id="paint2_linear_260_1154" x1="22" y1="19.25" x2="22" y2="32.25" gradientUnits="userSpaceOnUse">
<stop stop-color="#6DC7FF"/>
<stop offset="1" stop-color="#E6ABFF"/>
</linearGradient>
<linearGradient id="paint3_linear_260_1154" x1="106" y1="19.25" x2="106" y2="32.25" gradientUnits="userSpaceOnUse">
<stop stop-color="#6DC7FF"/>
<stop offset="1" stop-color="#E6ABFF"/>
</linearGradient>
</defs>
</svg>
