<svg width="128" height="128" viewBox="0 0 128 128" fill="none" xmlns="http://www.w3.org/2000/svg">
<path d="M106.868 84.222C105.216 81.378 102.13 79.768 98.8061 79.988C95.7941 80.2 92.7381 80.118 89.7101 79.748C68.3021 77.132 50.8661 59.696 48.2521 38.288C47.8821 35.258 47.8021 32.198 48.0161 29.194C48.2461 25.874 46.6241 22.786 43.7781 21.132C41.0001 19.518 37.7381 19.624 35.0541 21.412C18.5921 32.362 9.92407 51.416 12.4301 71.136C15.3341 93.978 34.0221 112.666 56.8661 115.57C59.1161 115.856 61.3581 115.996 63.5801 115.996C80.8281 115.996 96.8881 107.532 106.59 92.954C108.378 90.266 108.482 87.002 106.868 84.222ZM103.262 90.738C93.1561 105.922 75.5781 113.92 57.3701 111.602C36.3061 108.924 19.0761 91.694 16.3981 70.632C14.0841 52.428 22.0821 34.842 37.2681 24.738C38.0021 24.25 38.8181 24.004 39.6361 24.004C40.3641 24.004 41.0941 24.2 41.7661 24.59C42.9541 25.28 44.1721 26.78 44.0241 28.914C43.7941 32.172 43.8821 35.488 44.2821 38.772C47.1161 61.98 66.0161 80.884 89.2261 83.718C92.5041 84.12 95.8141 84.204 99.0861 83.98C101.214 83.83 102.72 85.048 103.412 86.236C104.242 87.664 104.186 89.348 103.262 90.738Z" fill="url(#paint0_linear_260_1063)"/>
<path d="M63.6199 104C61.8859 104 60.1219 103.888 58.3779 103.666C40.8759 101.44 26.5599 87.124 24.3359 69.624L20.3679 70.128C22.8199 89.408 38.5919 105.182 57.8759 107.636C59.7839 107.876 61.7159 108 63.6199 108C77.0799 108 89.5759 101.926 97.8959 91.334L94.7519 88.862C87.1919 98.482 75.8459 104 63.6199 104Z" fill="url(#paint1_linear_260_1063)"/>
<path d="M58.8801 99.7001C60.4561 99.9001 62.05 100 63.618 100C68.454 100 73.14 99.0521 77.548 97.1841L75.986 93.5001C70.802 95.7001 65.114 96.4641 59.384 95.7301C45.444 93.9561 34.0401 82.5521 32.2681 68.6121L28.3 69.1161C30.298 84.8381 43.1601 97.7001 58.8801 99.7001Z" fill="url(#paint2_linear_260_1063)"/>
<path d="M86.276 47.036L86.876 49.12C87.42 51.006 88.894 52.48 90.78 53.024L92.864 53.624C94.246 54.022 94.246 55.98 92.864 56.378L90.78 56.978C88.894 57.522 87.42 58.996 86.876 60.882L86.276 62.966C85.878 64.348 83.92 64.348 83.522 62.966L82.922 60.882C82.378 58.996 80.904 57.522 79.018 56.978L76.934 56.378C75.552 55.98 75.552 54.022 76.934 53.624L79.018 53.024C80.904 52.48 82.378 51.006 82.922 49.12L83.522 47.036C83.92 45.654 85.878 45.654 86.276 47.036Z" fill="url(#paint3_linear_260_1063)"/>
<path d="M69.664 22.576L69.998 23.734C70.3 24.782 71.118 25.6 72.166 25.902L73.3239 26.236C74.0919 26.458 74.0919 27.544 73.3239 27.766L72.166 28.1C71.118 28.402 70.3 29.22 69.998 30.268L69.664 31.426C69.442 32.194 68.356 32.194 68.134 31.426L67.8 30.268C67.498 29.22 66.68 28.402 65.632 28.1L64.4739 27.766C63.7059 27.544 63.7059 26.458 64.4739 26.236L65.632 25.902C66.68 25.6 67.498 24.782 67.8 23.734L68.134 22.576C68.356 21.808 69.442 21.808 69.664 22.576Z" fill="url(#paint4_linear_260_1063)"/>
<path d="M106.682 13.266L107.416 15.812C108.08 18.118 109.882 19.92 112.188 20.584L114.734 21.318C116.422 21.804 116.422 24.198 114.734 24.684L112.188 25.418C109.882 26.082 108.08 27.884 107.416 30.19L106.682 32.736C106.196 34.424 103.802 34.424 103.316 32.736L102.582 30.19C101.918 27.884 100.116 26.082 97.81 25.418L95.264 24.684C93.576 24.198 93.576 21.804 95.264 21.318L97.81 20.584C100.116 19.92 101.918 18.118 102.582 15.812L103.316 13.266C103.804 11.578 106.196 11.578 106.682 13.266Z" fill="url(#paint5_linear_260_1063)"/>
<defs>
<linearGradient id="paint0_linear_260_1063" x1="60.0061" y1="20.894" x2="60.0061" y2="114.602" gradientUnits="userSpaceOnUse">
<stop stop-color="#1A6DFF"/>
<stop offset="1" stop-color="#C822FF"/>
</linearGradient>
<linearGradient id="paint1_linear_260_1063" x1="59.1299" y1="20.894" x2="59.1299" y2="114.602" gradientUnits="userSpaceOnUse">
<stop stop-color="#1A6DFF"/>
<stop offset="1" stop-color="#C822FF"/>
</linearGradient>
<linearGradient id="paint2_linear_260_1063" x1="52.9241" y1="20.8941" x2="52.9241" y2="114.602" gradientUnits="userSpaceOnUse">
<stop stop-color="#1A6DFF"/>
<stop offset="1" stop-color="#C822FF"/>
</linearGradient>
<linearGradient id="paint3_linear_260_1063" x1="84.9" y1="47.628" x2="84.9" y2="62.182" gradientUnits="userSpaceOnUse">
<stop stop-color="#6DC7FF"/>
<stop offset="1" stop-color="#E6ABFF"/>
</linearGradient>
<linearGradient id="paint4_linear_260_1063" x1="68.8999" y1="22.904" x2="68.8999" y2="30.99" gradientUnits="userSpaceOnUse">
<stop stop-color="#6DC7FF"/>
<stop offset="1" stop-color="#E6ABFF"/>
</linearGradient>
<linearGradient id="paint5_linear_260_1063" x1="105" y1="11.59" x2="105" y2="31.6" gradientUnits="userSpaceOnUse">
<stop stop-color="#6DC7FF"/>
<stop offset="1" stop-color="#E6ABFF"/>
</linearGradient>
</defs>
</svg>
