<svg width="128" height="128" viewBox="0 0 128 128" fill="none" xmlns="http://www.w3.org/2000/svg">
<path d="M42 65.8H24V62.8C24 53.4 31.6 46 40.8 46H42V65.8Z" fill="url(#paint0_linear_260_723)"/>
<path d="M62 46H46V50H62V46Z" fill="url(#paint1_linear_260_723)"/>
<path d="M70 54H46V58H70V54Z" fill="url(#paint2_linear_260_723)"/>
<path d="M80 62H46V66H80V62Z" fill="url(#paint3_linear_260_723)"/>
<path d="M96 70H24V74H96V70Z" fill="url(#paint4_linear_260_723)"/>
<path d="M82 78H38V82H82V78Z" fill="url(#paint5_linear_260_723)"/>
<path d="M115.8 31.6C115.2 29.8 113.6 28.4 111.6 28.2L102.6 27L98.6 19C97.8 17 96 16 94 16C92 16 90.2 17 89.4 18.8L85.4 26.8L76.4 28C75 28.2 74 28.8 73.2 29.8H45C26.8 30 12 44.8 12 63C12 80.8 26.2 95.4 44.2 96L55.4 109.4C56.6 110.8 58.2 111.6 60 111.6C61.8 111.6 63.4 110.8 64.6 109.4L75.8 96C93.6 95.6 108 81 108 63C108 61 107.8 59 107.4 57C109 55.8 109.8 54 109.4 52L108 43.2L114.4 37C115.8 35.6 116.4 33.6 115.8 31.6ZM75 92H74L61.6 106.8C61 107.4 60.4 107.6 60 107.6C59.6 107.6 59 107.6 58.4 106.8L46.6 92.6L46 92H45C29 92 16 79 16 63C16 47 29 34 45 34H72.2C72.4 35 72.8 36 73.6 36.8L80 43L78.4 51.8C78 53.8 78.8 55.6 80.4 56.8C81.4 57.4 82.4 57.8 83.4 57.8C84.2 57.8 85 57.6 85.8 57.2L93.8 53L101.8 57.2C102.2 57.4 102.8 57.6 103.2 57.6C103.6 59.4 103.8 61 103.8 62.8C104 79 91 92 75 92ZM111.6 34L104.8 40.6C104 41.4 103.6 42.4 103.8 43.4L105.4 52.6C105.4 53 105.4 53.4 105 53.6C104.6 53.8 104.2 53.8 103.8 53.6L95.4 49.2C95 49 94.4 48.8 93.8 48.8C93.2 48.8 92.8 49 92.2 49.2L83.8 53.6C83.4 53.8 83 53.8 82.6 53.6C82.2 53.4 82 53 82.2 52.6L83.8 43.4C84 42.4 83.6 41.2 82.8 40.6L76.4 34C76 33.8 76 33.2 76 32.8C76.2 32.4 76.4 32 77 32L86.4 30.6C87.4 30.4 88.4 29.8 88.8 28.8L93 20.4C93.4 19.6 94.6 19.6 95 20.4L99.2 28.8C99.6 29.8 100.6 30.4 101.6 30.6L111 32C111.4 32 111.8 32.4 112 32.8C112 33.2 112 33.8 111.6 34Z" fill="url(#paint6_linear_260_723)"/>
<path d="M95 28.6L97 32.8C97.2 33.2 97.4 33.4 97.8 33.4L102.4 34C103.2 34.2 103.6 35.2 103 35.8L99.6 39C99.4 39.2 99.2 39.6 99.2 40L100 44.6C100.2 45.4 99.2 46.2 98.4 45.8L94.2 43.6C93.8 43.4 93.6 43.4 93.2 43.6L89 45.8C88.2 46.2 87.2 45.6 87.4 44.6L88.2 40C88.2 39.6 88.2 39.2 87.8 39L84.4 35.8C83.8 35.2 84.2 34 85 34L89.6 33.4C90 33.4 90.2 33.2 90.4 32.8L92.4 28.6C93.4 27.8 94.6 27.8 95 28.6Z" fill="url(#paint7_linear_260_723)"/>
<defs>
<linearGradient id="paint0_linear_260_723" x1="33" y1="45.67" x2="33" y2="67.46" gradientUnits="userSpaceOnUse">
<stop stop-color="#6DC7FF"/>
<stop offset="1" stop-color="#E6ABFF"/>
</linearGradient>
<linearGradient id="paint1_linear_260_723" x1="54" y1="18.086" x2="54" y2="105.464" gradientUnits="userSpaceOnUse">
<stop stop-color="#1A6DFF"/>
<stop offset="1" stop-color="#C822FF"/>
</linearGradient>
<linearGradient id="paint2_linear_260_723" x1="58" y1="18.086" x2="58" y2="105.464" gradientUnits="userSpaceOnUse">
<stop stop-color="#1A6DFF"/>
<stop offset="1" stop-color="#C822FF"/>
</linearGradient>
<linearGradient id="paint3_linear_260_723" x1="63" y1="18.086" x2="63" y2="105.464" gradientUnits="userSpaceOnUse">
<stop stop-color="#1A6DFF"/>
<stop offset="1" stop-color="#C822FF"/>
</linearGradient>
<linearGradient id="paint4_linear_260_723" x1="60" y1="18.086" x2="60" y2="105.464" gradientUnits="userSpaceOnUse">
<stop stop-color="#1A6DFF"/>
<stop offset="1" stop-color="#C822FF"/>
</linearGradient>
<linearGradient id="paint5_linear_260_723" x1="60" y1="18.086" x2="60" y2="105.464" gradientUnits="userSpaceOnUse">
<stop stop-color="#1A6DFF"/>
<stop offset="1" stop-color="#C822FF"/>
</linearGradient>
<linearGradient id="paint6_linear_260_723" x1="64.002" y1="18.086" x2="64.002" y2="105.464" gradientUnits="userSpaceOnUse">
<stop stop-color="#1A6DFF"/>
<stop offset="1" stop-color="#C822FF"/>
</linearGradient>
<linearGradient id="paint7_linear_260_723" x1="94" y1="26.924" x2="94" y2="45.98" gradientUnits="userSpaceOnUse">
<stop stop-color="#6DC7FF"/>
<stop offset="1" stop-color="#E6ABFF"/>
</linearGradient>
</defs>
</svg>
